# xmcd
#
# Track frame offsets: 
#        150
#        4933
#        23570
#        44528
#        61744
#        82297
#        109688
#        113662
#        133757
#        163470
#        184137
#        207443
#        227599
#
# Disc length: 3192 seconds
#
# Revision: 0
# Processed by: cddbd v1.5.2PL0 Copyright (c) Steve Scherf et al.
# Submitted via: ExactAudioCopy v0.95b4
#
DISCID=b10c760d
DTITLE=Lil' Fallay - Taste Me
DYEAR=2000
DGENRE=R&B
TTITLE0=Intro Sett If Off
TTITLE1=Just Won't Give In
TTITLE2=Can I Dance With You
TTITLE3=Nu Thang
TTITLE4=I Take That Back
TTITLE5=Taste Me
TTITLE6=Lil' Fallay Rap (Interlude)
TTITLE7=Swing It (Revisit)
TTITLE8=Spank It (Dirty South Slide)
TTITLE9=I Don't Wanna Be Alone
TTITLE10=Come Back
TTITLE11=Just Won't Give In (Dance Mix Bonus Track)
TTITLE12=Thank You (Spiritual Interlude)
EXTD=
EXTT0=
EXTT1=
EXTT2=
EXTT3=
EXTT4=
EXTT5=
EXTT6=
EXTT7=
EXTT8=
EXTT9=
EXTT10=
EXTT11=
EXTT12=
PLAYORDER=
